<?xml version="1.0"?><svg fill="#000000" xmlns="http://www.w3.org/2000/svg"  viewBox="0 0 100 100" width="100px" height="100px">    <path d="M 30.228516 17.654297 C 23.060516 17.654297 17.228516 23.486297 17.228516 30.654297 L 17.228516 69.654297 C 17.228516 76.822297 23.060516 82.654297 30.228516 82.654297 L 69.228516 82.654297 C 76.396516 82.654297 82.228516 76.822297 82.228516 69.654297 L 82.228516 30.654297 C 82.228516 23.485297 76.396516 17.654297 69.228516 17.654297 L 30.228516 17.654297 z M 30.228516 19.654297 L 69.228516 19.654297 C 75.293516 19.654297 80.228516 24.589297 80.228516 30.654297 L 80.228516 69.654297 C 80.228516 75.719297 75.293516 80.654297 69.228516 80.654297 L 30.228516 80.654297 C 24.163516 80.654297 19.228516 75.719297 19.228516 69.654297 L 19.228516 30.654297 C 19.228516 24.589297 24.163516 19.654297 30.228516 19.654297 z M 33.064453 22.652344 C 27.088453 22.652344 22.228516 27.514234 22.228516 33.490234 L 22.228516 66.816406 C 22.228516 72.792406 27.088453 77.652344 33.064453 77.652344 L 66.390625 77.652344 C 72.366625 77.652344 77.228516 72.792406 77.228516 66.816406 L 77.228516 48.154297 C 77.228516 47.877297 77.005516 47.654297 76.728516 47.654297 C 76.452516 47.654297 76.228516 47.878297 76.228516 48.154297 L 76.228516 66.816406 C 76.228516 72.240406 71.814625 76.654297 66.390625 76.654297 L 33.064453 76.654297 C 27.640453 76.654297 23.228516 72.240406 23.228516 66.816406 L 23.228516 33.490234 C 23.228516 28.066234 27.640453 23.652344 33.064453 23.652344 L 66.728516 23.652344 C 67.004516 23.652344 67.228516 23.428344 67.228516 23.152344 C 67.228516 22.876344 67.004516 22.652344 66.728516 22.652344 L 33.064453 22.652344 z M 49.728516 35.654297 C 41.733516 35.654297 35.228516 42.159297 35.228516 50.154297 C 35.228516 58.149297 41.733516 64.654297 49.728516 64.654297 C 57.723516 64.654297 64.228516 58.149297 64.228516 50.154297 C 64.228516 46.419297 62.79575 43.020266 60.46875 40.447266 C 60.43875 40.375266 60.397984 40.307906 60.333984 40.253906 C 60.308984 40.231906 60.278953 40.223984 60.251953 40.208984 C 57.606953 37.410984 53.873516 35.654297 49.728516 35.654297 z M 49.728516 36.654297 C 53.475516 36.654297 56.868406 38.190062 59.316406 40.664062 C 57.180406 43.053063 54.404438 44.644547 51.523438 45.685547 C 49.542437 41.723547 47.352578 38.51675 45.892578 37.21875 C 47.109578 36.85575 48.395516 36.654297 49.728516 36.654297 z M 44.78125 37.605469 C 45.62025 37.870469 48.207938 41.331906 50.585938 46.003906 C 44.144937 48.060906 37.495375 47.559219 36.609375 47.324219 C 36.587375 47.312219 36.561109 47.311734 36.537109 47.302734 C 37.495109 42.867734 40.63925 39.244469 44.78125 37.605469 z M 76.728516 37.654297 C 76.452516 37.654297 76.228516 37.877297 76.228516 38.154297 L 76.228516 40.154297 C 76.228516 40.430297 76.452516 40.654297 76.728516 40.654297 C 77.004516 40.654297 77.228516 40.430297 77.228516 40.154297 L 77.228516 38.154297 C 77.228516 37.878297 77.004516 37.654297 76.728516 37.654297 z M 59.986328 41.400391 C 61.953328 43.702391 63.160797 46.670969 63.216797 49.917969 C 61.919797 49.843969 58.138391 49.920406 53.775391 50.816406 C 53.228391 49.368406 52.617609 47.951469 51.974609 46.605469 C 54.920609 45.520469 57.756328 43.865391 59.986328 41.400391 z M 76.728516 41.654297 C 76.452516 41.654297 76.228516 41.878297 76.228516 42.154297 L 76.228516 46.154297 C 76.228516 46.430297 76.452516 46.654297 76.728516 46.654297 C 77.004516 46.654297 77.228516 46.430297 77.228516 46.154297 L 77.228516 42.154297 C 77.228516 41.877297 77.005516 41.654297 76.728516 41.654297 z M 51.042969 46.925781 C 51.675969 48.226781 52.281172 49.604438 52.826172 51.023438 C 48.014172 52.126438 42.674656 54.249094 39.222656 58.246094 C 39.164656 58.313094 39.134187 58.393609 39.117188 58.474609 C 37.313187 56.178609 36.226563 53.293297 36.226562 50.154297 C 36.226562 49.522297 36.285141 48.903922 36.369141 48.294922 C 36.406141 48.303922 36.445516 48.312359 36.478516 48.318359 C 37.099516 48.437359 38.438937 48.568359 40.210938 48.568359 C 43.087938 48.568359 47.104969 48.215781 51.042969 46.925781 z M 61.941406 50.890625 C 62.502344 50.880922 62.928703 50.890656 63.189453 50.910156 C 62.920453 55.725156 60.131422 59.879875 56.107422 62.046875 C 56.182422 58.901875 55.367906 55.286156 54.128906 51.785156 C 57.368156 51.125906 60.258594 50.919734 61.941406 50.890625 z M 53.1875 51.988281 C 54.4115 55.407281 55.225469 58.998562 55.105469 62.226562 C 55.102469 62.325562 55.134641 62.413188 55.181641 62.492188 C 53.512641 63.234187 51.670516 63.654297 49.728516 63.654297 C 45.703516 63.654297 42.093187 61.873312 39.617188 59.070312 C 39.751188 59.065312 39.884469 59.010391 39.980469 58.900391 C 43.271469 55.089391 48.4965 53.054281 53.1875 51.988281 z"/></svg>